<svg width="80" height="80" viewBox="0 0 181 180" fill="none" xmlns="http://www.w3.org/2000/svg">
	<path d="M180.69 41.5186C180.69 39.7186 179.41 37.5086 177.84 36.6086L114.66 0.508576C113.84 0.0385757 112.62 0.198576 111.95 0.868576C107.53 4.76858 104.37 7.91858 100.48 12.3586C99.76 13.0886 99.21 14.4686 99.11 15.5186C97.95 27.2786 96.61 40.6286 100.15 52.0886C102.88 60.9486 108.41 68.8386 115.76 74.4486C123.44 80.2986 132.93 83.4986 142.57 83.4986H142.64V94.6886C118.71 94.7586 99.25 113.539 98.13 137.249C98.07 138.539 98.65 139.749 99.78 140.479L168.03 179.409C168.93 179.869 170.06 179.729 170.81 179.059C173.9 176.199 176.84 173.199 179.69 170.099C180.23 169.549 180.68 168.469 180.68 167.699V41.5186H180.69Z" fill="white" />
	<path d="M0 138.139C0 139.939 1.28 142.149 2.85 143.039L66.03 179.149C66.85 179.619 68.07 179.459 68.74 178.789C73.16 174.889 76.32 171.739 80.21 167.299C80.93 166.569 81.48 165.189 81.58 164.139C82.74 152.379 84.08 139.029 80.54 127.569C77.81 118.709 72.28 110.819 64.93 105.209C57.25 99.3586 47.76 96.1586 38.12 96.1586H38.05V84.9686C61.98 84.8986 81.44 66.1186 82.56 42.4086C82.62 41.1186 82.04 39.9086 80.91 39.1786L12.65 0.268582C11.75 -0.191418 10.62 -0.0514185 9.87 0.618582C6.77 3.47858 3.83 6.47858 0.99 9.57858C0.45 10.1286 0 11.2086 0 11.9786V138.139Z" fill="white" />
</svg>
